<svg clip-rule="evenodd" fill-rule="evenodd" height="2.22856in" image-rendering="optimizeQuality" shape-rendering="geometricPrecision" text-rendering="geometricPrecision" viewBox="0 0 6222.84 2228.56" width="6.22284in" xmlns="http://www.w3.org/2000/svg"><g fill="#18bc9c" fill-rule="nonzero"><path d="m3120.58 1584.63h655.49v256.09l-1212.92 2.39 24.24-30.54c156.85-197.75 309.99-401.32 462.6-602.42 119.7-157.74 239.93-316.12 355.51-476.88 46.04-64.02 81.4-101 81.4-184.41 0-163.25-132.11-288.69-293.75-288.69-161.98 0-291.22 125.78-291.22 288.69 0 85.42 37.85 164.84 101.93 219.19-58.89 73.33-103.1 128.27-161.74 201.8-139.73-103.68-215.7-249.13-215.7-422.86 0-322.12 268.97-536.25 583.07-536.25 314.09 0 564.32 236.62 562.45 515.65 0 172.18-81.74 294.42-187.26 425.58l-464.08 632.66z"/><path d="m6092.58 191.31c71.94 0 130.26 58.32 130.26 130.26s-58.33 130.26-130.26 130.26c-71.94 0-130.26-58.33-130.26-130.26 0-71.94 58.33-130.26 130.26-130.26z"/><path d="m5537.52 527.59c91.8 0 177.26 17.09 256.37 51.27s148.94 81.07 209.49 140.64c60.54 59.58 107.92 128.91 142.1 208.02s51.27 164.57 51.27 256.37v659.22h-260.76v-659.22c0-54.69-10.25-105.96-30.76-153.82-20.51-47.85-48.83-89.85-84.98-125.98-36.13-36.14-78.62-64.46-127.44-84.97-48.83-20.51-100.6-30.76-155.29-30.76s-105.96 10.25-153.82 30.76c-47.85 20.51-89.85 48.83-125.98 84.97-36.14 36.13-64.46 78.13-84.97 125.98-20.51 47.86-30.76 99.13-30.76 153.82v659.22h-260.76v-659.22c0-54.69-10.26-105.96-30.77-153.82-20.51-47.85-48.82-89.85-84.96-125.98-36.14-36.14-78.62-64.46-127.45-84.97s-100.59-30.76-155.28-30.76c-54.7 0-105.97 10.25-153.82 30.76-47.86 20.51-89.85 48.83-125.99 84.97-36.14 36.13-64.45 78.13-84.96 125.98-20.51 47.86-30.77 99.13-30.77 153.82v659.22h-260.76v-659.22c0-91.8 17.09-177.26 51.28-256.37 34.18-79.11 81.05-148.44 140.63-208.02 59.57-59.57 129.4-106.46 209.48-140.64s165.05-51.27 254.91-51.27c109.38 0 209.48 23.93 300.31 71.78 90.83 47.86 166.52 112.8 227.07 194.84 60.56-82.04 136.73-146.98 228.53-194.84 91.8-47.85 191.42-71.78 298.85-71.78z"/><path d="m3597.28 2224.87c-.31-.77-1.23-2.61-2.76-5.46-1.54-2.84-2.31-6.83-2.31-12.06v-13.14c-4.3 6.15-9.3 11.37-15.06 15.75s-12.06 7.99-18.82 10.76-13.75 4.76-21.05 5.99-14.6 1.85-21.82 1.85c-13.37 0-25.51-2.54-36.42-7.53s-20.2-12.14-27.89-21.51c-7.68-9.37-13.6-20.67-17.75-33.88s-6.22-28.04-6.22-44.48v-138.3h37.8v138.3c0 22.59 4.22 40.03 12.75 52.4s21.59 18.59 39.26 18.59c10.14 0 19.67-1.31 28.66-3.92 8.91-2.61 16.83-6.15 23.59-10.52 6.69-4.38 12.14-9.53 16.21-15.44s6.3-12.06 6.76-18.52v-160.88h37.8v242.02h-32.73z"/><path d="m3733.73 1982.62c.31.77 1.23 2.54 2.76 5.22 1.54 2.69 2.31 5.99 2.31 9.99v22.13c2.92-5.69 7.07-10.99 12.44-15.98 5.38-5 11.52-9.37 18.44-13.06 6.91-3.69 14.44-6.53 22.51-8.6s16.13-3.15 24.28-3.15c10.91 0 21.28 1.76 31.12 5.3l-3 16.29c-1.23 6.61-3.92 11.14-8.15 13.52-4.22 2.38-9.14 3.61-14.67 3.61-1.07 0-1.77-.07-2.07-.15-.31-.08-1.54-.08-3.69-.08-10.14 0-19.82 1.54-29.04 4.69s-17.29 7.3-24.28 12.37-12.6 10.76-16.83 17.13c-4.22 6.37-6.61 12.83-7.07 19.28v153.74h-37.8v-242.24h32.73z"/><path d="m3923.19 1894.34v330.53h-37.8v-330.53z"/><path d="m4123.03 2185.22c5.22-2.61 9.99-4.92 14.29-6.83 4.3-1.92 8.15-2.85 11.53-2.85 3.07 0 6.3.54 9.6 1.61s7.22 3.07 11.83 6.15c4 2.85 8.45 5 13.29 6.3 4.84 1.38 9.83 2.07 15.06 2.07 5.53 0 11.06-.85 16.52-2.46s10.37-4 14.83-7.22c4.46-3.23 8.15-7.3 10.99-12.14s4.3-10.45 4.46-16.98c-.15-4.61-.92-8.61-2.38-12.06-1.46-3.46-3.92-6.69-7.3-9.68-3.38-3-7.91-5.92-13.68-8.76-5.76-2.92-13.14-5.84-22.05-8.91l-2.31-.92c-8.3-2.76-16.44-5.91-24.51-9.37s-15.29-7.76-21.67-12.99c-6.38-5.3-11.53-11.68-15.44-19.28-3.92-7.61-5.91-16.98-5.91-28.04 0-9.37 2.15-17.9 6.37-25.58 4.23-7.76 9.76-14.29 16.59-19.74 6.76-5.46 14.44-9.68 22.97-12.68s17.13-4.61 25.74-4.76h.92c8.76.15 16.75 1.69 23.97 4.69s13.6 6.45 19.13 10.37 10.14 7.76 13.75 11.52 6.15 6.61 7.69 8.45l-7.61 6.45c-3.07 2.61-6.22 4.61-9.45 6.07-3.22 1.46-6.69 2.23-10.37 2.23-2.46 0-5.22-.69-8.37-2.07s-6.38-2.92-9.68-4.53-6.69-3.07-10.14-4.38c-3.46-1.31-6.76-1.92-9.83-1.92-6.45 0-11.91 1-16.37 3s-8.07 4.38-10.83 7.15c-2.77 2.76-4.69 5.61-5.84 8.6-1.15 2.92-1.77 5.3-1.77 7.15 0 5.38 1.3 9.91 3.84 13.6s5.76 6.92 9.76 9.61 8.6 4.99 13.75 6.84c5.15 1.84 10.37 3.69 15.75 5.53.31 0 .54 0 .69.07.15.08.31.15.46.15 8.91 3.07 17.67 6.53 26.2 10.53 8.53 3.92 16.13 8.76 22.82 14.52 6.68 5.76 11.98 12.68 15.98 20.67s5.99 17.59 5.99 28.66c0 10.14-2.15 19.82-6.38 28.96-4.22 9.14-10.14 17.21-17.59 24.05-7.53 6.84-16.36 12.29-26.5 16.37-10.14 4.07-21.2 6.15-33.19 6.15-7.68 0-15.21-1-22.59-3s-14.29-4.84-20.82-8.53-12.6-8.22-18.13-13.6-10.22-11.44-14.06-18.21z"/><path d="m4373.34 1894.34c1.07 1.23 2.07 2.69 3 4.38.77 1.38 1.54 3.07 2.23 5.07s1 4.3 1 6.91l-.15 105.33c2-4.46 5.22-8.91 9.76-13.37s10.07-8.45 16.52-11.91 13.83-6.22 22.13-8.37 17.36-3.22 27.04-3.22c14.44 0 27.28 2.54 38.42 7.68 11.14 5.15 20.51 12.44 28.12 21.82 7.61 9.37 13.37 20.67 17.29 33.88 3.92 13.22 5.92 27.89 5.92 44.02v138.3h-37.8v-138.3c0-11.22-1-21.2-3-29.96s-5.07-16.14-9.3-22.13c-4.22-5.99-9.6-10.6-16.13-13.83s-14.37-4.92-23.59-5.07h-.69c-11.06 0-21.05 1.54-30.12 4.61-9.06 3.07-16.9 6.92-23.51 11.6-6.53 4.69-11.68 9.91-15.29 15.67s-5.45 11.3-5.61 16.52v160.88h-37.8v-330.52h31.58z"/><path d="m4593 2103.7c0-17.06 3.3-33.11 9.83-48.33 6.53-15.13 15.44-28.35 26.74-39.64 11.3-11.3 24.51-20.21 39.65-26.74 15.21-6.53 31.27-9.83 48.4-9.83 17.21 0 33.35 3.3 48.56 9.83 15.13 6.53 28.35 15.44 39.64 26.74 11.3 11.29 20.21 24.51 26.74 39.64 6.53 15.21 9.83 31.27 9.83 48.33 0 17.29-3.3 33.42-9.83 48.63-6.53 15.13-15.44 28.35-26.74 39.65-11.29 11.29-24.51 20.2-39.64 26.74-15.21 6.53-31.35 9.83-48.56 9.83-17.13 0-33.19-3.3-48.4-9.83-15.14-6.53-28.35-15.44-39.65-26.74-11.29-11.3-20.2-24.51-26.74-39.65-6.53-15.21-9.83-31.35-9.83-48.63zm36.88-.07c0 12.14 2.31 23.51 6.92 34.19s10.91 19.98 18.82 27.89 17.13 14.13 27.74 18.67c10.6 4.53 21.97 6.84 34.11 6.84s23.59-2.31 34.27-6.84c10.68-4.54 19.98-10.76 27.89-18.67s14.13-17.21 18.67-27.89c4.53-10.68 6.76-22.05 6.76-34.19s-2.23-23.59-6.76-34.27c-4.54-10.68-10.76-19.98-18.67-27.89s-17.21-14.14-27.89-18.67-22.13-6.76-34.27-6.76-23.51 2.23-34.11 6.76-19.82 10.76-27.74 18.67c-7.91 7.91-14.21 17.21-18.82 27.89s-6.92 22.13-6.92 34.27z"/><path d="m4925.37 1982.62c.31.77 1.23 2.54 2.76 5.22 1.54 2.69 2.31 5.99 2.31 9.99v22.13c2.92-5.69 7.07-10.99 12.44-15.98 5.38-5 11.52-9.37 18.44-13.06 6.91-3.69 14.44-6.53 22.51-8.6s16.13-3.15 24.28-3.15c10.91 0 21.28 1.76 31.12 5.3l-3 16.29c-1.23 6.61-3.92 11.14-8.15 13.52-4.22 2.38-9.14 3.61-14.67 3.61-1.07 0-1.77-.07-2.07-.15-.31-.08-1.54-.08-3.69-.08-10.14 0-19.82 1.54-29.04 4.69s-17.29 7.3-24.28 12.37-12.6 10.76-16.83 17.13c-4.22 6.37-6.61 12.83-7.07 19.28v153.74h-37.8v-242.24h32.73z"/><path d="m5124.97 2166.63c0 2.61.54 5.53 1.54 8.68 1 3.23 2.46 6.15 4.46 8.83 2 2.69 4.46 5 7.3 6.84s6.07 2.76 9.76 2.76l6.45-.69c6.61-1.84 12.22-2.77 16.83-2.77 5.38 0 10.22 1.46 14.52 4.46s7.99 6.61 11.07 10.91l3.22 4.54c-3.07 2.46-6.76 4.84-11.14 6.99-4.38 2.22-8.99 4.22-13.83 5.84-4.84 1.69-9.68 3.07-14.52 4.07s-9.22 1.46-13.06 1.46c-9.22 0-17.59-1.54-25.05-4.61-7.45-3.07-13.83-7.38-19.13-12.83-5.22-5.53-9.22-12.06-12.06-19.67-2.76-7.61-4.15-15.98-4.15-25.12v-148.44h-41.95v-16.59c0-3.23.46-5.99 1.39-8.3.92-2.38 2.61-4.38 4.99-5.91 2.38-1.61 5.61-2.77 9.76-3.54s9.37-1.15 15.67-1.15h10.14v-52.09c0-4.15.46-8.07 1.31-11.68s1.77-6.76 2.84-9.45 2.15-4.92 3.15-6.69 1.69-2.92 2-3.54h28.5v83.44h69.84v35.5h-69.84v148.74z"/><path d="m5466.56 2082.35c0 4.61-.85 8.83-2.61 12.83-1.77 3.92-4.07 7.22-6.84 10.06-2.76 2.77-5.91 4.92-9.45 6.53s-7.15 2.46-10.83 2.46h-178.17c1.07 11.06 4.07 21.28 8.99 30.73s11.29 17.67 19.05 24.58c7.76 6.92 16.67 12.3 26.74 16.21 10.06 3.92 20.74 5.92 32.11 5.92 7.53 0 15.37-1.31 23.51-3.92 8.15-2.61 15.67-5.91 22.59-9.91 2.15-1.23 4.69-2.23 7.53-3s5.69-1.15 8.61-1.15c3.69 0 7.15.61 10.37 1.92 3.23 1.31 6.15 2.92 8.76 4.76l9.45 8.3c-5.69 5.84-11.91 11.22-18.74 16.13-6.84 4.92-14.14 9.14-21.9 12.68-7.76 3.53-15.91 6.22-24.35 8.14-8.45 1.92-17.06 2.92-25.81 2.92-17.21 0-33.35-3.3-48.48-9.83-15.14-6.53-28.35-15.44-39.65-26.74-11.29-11.37-20.2-24.51-26.74-39.65-6.53-15.06-9.83-31.27-9.83-48.48s3.3-33.42 9.91-48.48c6.61-15.13 15.59-28.27 26.89-39.64 11.29-11.3 24.51-20.21 39.64-26.74 15.14-6.53 31.19-9.83 48.25-9.83 14.29 0 27.96 2.38 40.95 7.07 12.98 4.69 24.74 11.22 35.34 19.67 10.6 8.37 19.67 18.28 27.2 29.73 7.53 11.37 13.06 23.82 16.59 37.19.62 2.92.93 6.07.93 9.53zm-38.49-5.46c-2.92-9.37-7.07-17.82-12.45-25.35-5.38-7.45-11.68-13.83-18.98-19.06-7.3-5.22-15.29-9.3-23.97-12.14-8.69-2.85-17.75-4.3-27.12-4.3-10.6 0-20.67 1.77-30.2 5.22-9.52 3.46-17.98 8.3-25.43 14.6-7.45 6.22-13.83 13.6-19.06 22.2-5.22 8.53-8.83 17.83-10.83 27.89 1.07-1.84 2.69-3.84 4.84-5.91s5.07-3.15 8.76-3.15h154.43z"/><path d="m5549.54 1982.85c.31.77 1.23 2.61 2.76 5.53 1.54 2.92 2.31 6.92 2.31 11.99l-.15 15.44c4.3-6.15 9.3-11.52 15.06-16.06s12.06-8.3 18.82-11.37 13.83-5.38 21.13-6.91c7.3-1.54 14.6-2.3 21.82-2.3 13.37 0 25.51 2.46 36.42 7.45s20.28 12.21 27.96 21.59c7.69 9.37 13.6 20.67 17.75 33.88 4.15 13.22 6.22 28.04 6.22 44.48v138.3h-37.8v-138.3c0-22.43-4.22-39.87-12.75-52.32s-21.59-18.67-39.26-18.67c-10.14 0-19.67 1.23-28.66 3.76-8.91 2.54-16.83 5.99-23.59 10.3-6.69 4.3-12.14 9.3-16.21 15.06s-6.3 11.91-6.76 18.36v161.8h-37.8v-242.02h32.73z"/><path d="m6013.74 2082.35c0 4.61-.85 8.83-2.61 12.83-1.77 3.92-4.07 7.22-6.84 10.06-2.76 2.77-5.91 4.92-9.45 6.53s-7.15 2.46-10.83 2.46h-178.17c1.07 11.06 4.07 21.28 8.99 30.73s11.29 17.67 19.05 24.58c7.76 6.92 16.67 12.3 26.74 16.21 10.06 3.92 20.74 5.92 32.11 5.92 7.53 0 15.37-1.31 23.51-3.92 8.15-2.61 15.67-5.91 22.59-9.91 2.15-1.23 4.69-2.23 7.53-3s5.69-1.15 8.61-1.15c3.69 0 7.15.61 10.37 1.92 3.23 1.31 6.15 2.92 8.76 4.76l9.45 8.3c-5.69 5.84-11.91 11.22-18.74 16.13-6.84 4.92-14.14 9.14-21.9 12.68-7.76 3.53-15.91 6.22-24.35 8.14-8.45 1.92-17.06 2.92-25.81 2.92-17.21 0-33.35-3.3-48.48-9.83-15.14-6.53-28.35-15.44-39.65-26.74-11.29-11.37-20.2-24.51-26.74-39.65-6.53-15.06-9.83-31.27-9.83-48.48s3.3-33.42 9.91-48.48c6.61-15.13 15.59-28.27 26.89-39.64 11.29-11.3 24.51-20.21 39.64-26.74 15.14-6.53 31.19-9.83 48.25-9.83 14.29 0 27.96 2.38 40.95 7.07 12.98 4.69 24.74 11.22 35.34 19.67 10.6 8.37 19.67 18.28 27.2 29.73 7.53 11.37 13.06 23.82 16.59 37.19.62 2.92.93 6.07.93 9.53zm-38.49-5.46c-2.92-9.37-7.07-17.82-12.45-25.35-5.38-7.45-11.68-13.83-18.98-19.06-7.3-5.22-15.29-9.3-23.97-12.14-8.69-2.85-17.75-4.3-27.12-4.3-10.6 0-20.67 1.77-30.2 5.22-9.52 3.46-17.98 8.3-25.43 14.6-7.45 6.22-13.83 13.6-19.06 22.2-5.22 8.53-8.83 17.83-10.83 27.89 1.07-1.84 2.69-3.84 4.84-5.91s5.07-3.15 8.76-3.15h154.43z"/><path d="m6096.72 1982.62c.31.77 1.23 2.54 2.76 5.22 1.54 2.69 2.31 5.99 2.31 9.99v22.13c2.92-5.69 7.07-10.99 12.44-15.98 5.38-5 11.52-9.37 18.44-13.06 6.91-3.69 14.44-6.53 22.51-8.6s16.13-3.15 24.28-3.15c10.91 0 21.28 1.76 31.12 5.3l-3 16.29c-1.23 6.61-3.92 11.14-8.15 13.52-4.22 2.38-9.14 3.61-14.67 3.61-1.07 0-1.77-.07-2.07-.15-.31-.08-1.54-.08-3.69-.08-10.14 0-19.82 1.54-29.04 4.69s-17.29 7.3-24.28 12.37-12.6 10.76-16.83 17.13c-4.22 6.37-6.61 12.83-7.07 19.28v153.74h-37.8v-242.24h32.73z"/><path d="m2714.96 1582.14-208.8 260.76h-23.11c-89.82 0-174.83-17.11-254.89-51.27-80.07-34.17-150.41-81.55-210.95-142.09-60.56-60.56-107.92-130.87-142.11-210.96-34.18-80.09-51.27-165.05-51.27-254.91v-1183.67h260.76v723.65h523.63c23.73 88.8 81.15 186.94 174.17 260.76h-697.8v199.27c0 54.68 10.25 106.47 30.76 155.29 20.5 48.82 48.83 91.31 84.97 127.44 36.14 36.14 78.65 64.48 127.45 84.97 48.8 20.48 100.59 30.76 155.28 30.76z"/><path d="m1182.98 196.59c23.54 0 47.1 8.99 65.07 26.96v.15c17.96 17.97 26.96 41.46 26.96 64.91 0 23.44-8.99 46.93-26.96 64.91v.15l-407.86 407.87h-.15c-17.97 17.96-41.46 26.95-64.91 26.95-23.54 0-47.1-8.99-65.07-26.95l-407.86-407.87c-17.97-17.96-26.95-41.52-26.95-65.06 0-23.55 8.98-47.1 26.95-65.07l.08.08c18.05-18.02 41.57-27.04 64.98-27.04 23.54 0 47.1 8.99 65.07 26.96l342.79 342.8 342.8-342.8.08.08c18.05-18.02 41.57-27.04 64.98-27.04z"/><path d="m157.08 498.79 407.86 407.87c17.97 17.97 26.96 41.52 26.96 65.06 0 23.44-8.99 46.93-26.96 64.91v.15l-407.86 407.87h-.16c-17.97 17.96-41.47 26.95-64.91 26.95-23.54 0-47.1-8.99-65.06-26.95l.07-.08c-18.01-18.05-27.03-41.57-27.03-64.98 0-23.54 8.98-47.1 26.95-65.07l342.8-342.8-342.8-342.8c-17.97-17.97-26.95-41.52-26.95-65.07 0-23.38 8.98-46.86 26.95-64.91l.15-.15c18.04-17.96 41.53-26.95 64.91-26.95 23.54 0 47.1 8.99 65.07 26.95z"/><path d="m840.19 1181.89 407.86 407.87-.25.25.25-.1c17.96 17.97 26.96 41.46 26.96 64.91 0 17.77-5.12 35.55-15.35 50.92v7.56l-3.14-3.13c-2.56 3.38-5.38 6.63-8.46 9.72-17.96 17.97-41.53 26.96-65.07 26.96-23.41 0-46.93-9.02-64.98-27.04l-.08.08-342.8-342.8-342.79 342.8c-17.97 17.97-41.52 26.96-65.07 26.96-23.41 0-46.93-9.02-64.98-27.04l-.08.08c-17.96-17.96-26.95-41.52-26.95-65.07h.16c0-23.63 8.93-47.2 26.79-65.06l407.86-407.87h.16c17.97-17.96 41.46-26.95 64.91-26.95 23.54 0 47.09 8.98 65.06 26.95z"/><path d="m1393.16 1444.65-407.87-407.86c-17.97-17.97-26.96-41.53-26.96-65.07 0-23.55 8.99-47.1 26.96-65.06l407.86-407.87.08.08c18.05-18.02 41.57-27.03 64.98-27.03 23.54 0 47.1 8.99 65.07 26.95 17.96 17.96 26.95 41.52 26.95 65.06 0 23.45-8.99 46.94-26.95 64.91v.15l-342.79 342.8 342.79 342.8v.15c17.96 17.97 26.95 41.46 26.95 64.91 0 23.54-8.99 47.1-26.95 65.06-17.98 17.98-41.53 26.96-65.06 26.96-23.54 0-47.09-8.98-65.06-26.95z"/><path d="m602.87 1029.98v.78c0 14.54 2.9 28.91 8.31 42.3 5.43 13.43 13.41 25.85 23.55 36.42l.61.61c21.69 21.84 50.14 32.81 78.59 32.96 28.59.15 57.22-10.62 79.02-32.19l53.79-52.86-38.78-39.43-53.74 52.82c-5.3 5.14-11.57 9.17-18.37 11.9-6.8 2.74-14.2 4.2-21.71 4.2-15.42 0-29.41-6.33-39.51-16.5-10.16-10.21-16.45-24.34-16.45-39.85l-.05-.61c-.15-7.4 1.25-14.58 3.98-21.22 2.79-6.8 7.01-13.07 12.39-18.48l53.78-52.86-38.77-39.43-53.39 52.48c-10.68 10.28-18.94 22.5-24.56 35.83-5.71 13.58-8.69 28.24-8.69 43.11zm134.83 17.26 121.93-120.26-38.79-39.34-130.01 128.23 38.79 39.34zm149.66-113.11c-2.8 6.79-7.05 13.08-12.48 18.51l-53.28 52.86 38.74 39.39 53.78-52.88c10.57-10.35 18.87-22.67 24.54-36.15 5.67-13.47 8.7-28.02 8.7-42.8v-.78c0-14.61-2.93-29.08-8.47-42.51-5.5-13.35-13.59-25.63-23.91-35.96l-.47-.47c-21.74-21.9-50.27-32.85-78.81-32.96-28.49-.11-57.01 10.65-78.76 32.15l-54.26 52.87 38.81 39.46 53.74-52.83c5.3-5.14 11.58-9.17 18.37-11.91 6.8-2.74 14.2-4.2 21.71-4.2 15.42 0 29.41 6.33 39.51 16.5 10.16 10.21 16.46 24.34 16.46 39.85l.05.61c.16 7.4-1.25 14.59-3.97 21.23z"/></g></svg>