<svg enable-background="new 0 0 132 54" viewBox="0 0 132 54" xmlns="http://www.w3.org/2000/svg"><path d="m117 20.6v-2.2c0-.2-.2-.4-.4-.4h-11.2c-.2 0-.4.2-.4.4v17.2c0 .2.2.4.4.4h11.2c.2 0 .4-.2.4-.4v-2.2c0-.2.2-.4.4-.4h5.2c.2 0 .4.2.4.4v2.6c0 3.3-2.7 6-6 6h-12c-3.3 0-6-2.7-6-6v-18c0-3.3 2.7-6 6-6h12c3.3 0 6 2.7 6 6v2.6c0 .2-.2.4-.4.4h-5.2c-.2 0-.4-.2-.4-.4z" fill="#ff7f00"/><g fill="#215378"><path d="m21 6.4v29.2c0 .2.2.4.4.4h2.2c.2 0 .4.2.4.4v5.2c0 .2-.2.4-.4.4h-11.2c-.2 0-.4-.2-.4-.4v-5.2c0-.2.2-.4.4-.4h2.2c.2 0 .4-.2.4-.4v-29.2c0-.2-.2-.4-.4-.4h-7.2c-.2 0-.4.2-.4.4v5.2c0 .2-.2.4-.4.4h-5.2c-.2 0-.4-.2-.4-.4v-11.2c0-.2.2-.4.4-.4h33.2c.2 0 .4.2.4.4v11.2c0 .2-.2.4-.4.4h-5.2c-.2 0-.4-.2-.4-.4v-5.2c0-.2-.2-.4-.4-.4h-7.2c-.2 0-.4.2-.4.4z"/><path d="m84.4 12h11.2c.2 0 .4.2.4.4v5.2c-0 .2-.2.4-.4.4h-2.2c-.2 0-.4.2-.4.4v29.6c0 3.3-2.7 6-6 6h-9c-3.3 0-6-2.7-6-6v-2.6c0-.2.2-.4.4-.4h5.2c.2 0 .4.2.4.4v2.2c0 .2.2.4.4.4h8.2c.2 0 .4-.2.4-.4v-5.2c0-.2-.2-.4-.4-.4h-8.6c-3.3 0-6-2.7-6-6v-17.6c0-.2-.2-.4-.4-.4h-2.2c-.2 0-.4-.2-.4-.4v-5.2c0-.2.2-.4.4-.4h11.2c.2 0 .4.2.4.4v5.2c-0 .2-.2.4-.4.4h-2.2c-.2 0-.4.2-.4.4v17.2c0 .2.2.4.4.4h8.2c.2 0 .4-.2.4-.4v-17.2c0-.2-.2-.4-.4-.4h-2.2c-.2 0-.4-.2-.4-.4v-5.2c0-.2.2-.4.4-.4z"/><path d="m42.4 12h17.6c3.3 0 6 2.7 6 6v17.6c0 .2.2.4.4.4h2.2c.2 0 .4.2.4.4v5.2c-0 .2-.2.4-.4.4h-11.2c-.2 0-.4-.2-.4-.4v-5.2c0-.2.2-.4.4-.4h2.2c.2 0 .4-.2.4-.4v-17.2c0-.2-.2-.4-.4-.4h-8.2c-.2 0-.4.2-.4.4v17.2c0 .2.2.4.4.4h2.2c.2 0 .4.2.4.4v5.2c0 .2-.2.4-.4.4h-11.2c-.2 0-.4-.2-.4-.4v-5.2c0-.2.2-.4.4-.4h2.2c.2 0 .4-.2.4-.4v-17.2c0-.2-.2-.4-.4-.4h-2.2c-.2 0-.4-.2-.4-.4v-5.2c0-.2.2-.4.4-.4z"/><path d="m27 41.6v-5.2c0-.2.2-.4.4-.4h2.2c.2 0 .4-.2.4-.4v-11.2c0-.2-.2-.4-.4-.4h-2.2c-.2 0-.4-.2-.4-.4v-5.2c0-.2.2-.4.4-.4h8.2c.2 0 .4.2.4.4v17.2c0 .2.2.4.4.4h2.2c.2 0 .4.2.4.4v5.2c0 .2-.2.4-.4.4h-11.2c-.2 0-.4-.2-.4-.4z"/></g><path d="m108 45.4v2.6c0 3.3 2.7 6 6 6h12c3.3 0 6-2.7 6-6v-18c0-3.3-2.7-6-6-6h-12c-3.3 0-6 2.7-6 6v2.6c0 .2.2.4.4.4h5.2c.2 0 .4-.2.4-.4v-2.2c0-.2.2-.4.4-.4h11.2c.2 0 .4.2.4.4v17.2c0 .2-.2.4-.4.4h-11.2c-.2 0-.4-.2-.4-.4v-2.2c0-.2-.2-.4-.4-.4h-5.2c-.2 0-.4.2-.4.4z" fill="#ff7f00"/></svg>