<svg xmlns="http://www.w3.org/2000/svg" width="172.781" height="47.001" fill="none"><path fill="#000" d="M35.843 26.906q0 3.718-1.406 7a18.2 18.2 0 0 1-3.844 5.687q-2.437 2.406-5.719 3.813-3.25 1.406-6.969 1.406t-7-1.406a18.4 18.4 0 0 1-5.687-3.813q-2.406-2.438-3.812-5.687Q0 30.624 0 26.906V0h8.938v26.906a8.8 8.8 0 0 0 .687 3.469 9.3 9.3 0 0 0 4.781 4.781 9 9 0 0 0 3.5.687 8.8 8.8 0 0 0 3.469-.687 9.2 9.2 0 0 0 2.875-1.938 8.9 8.9 0 0 0 1.906-2.844 8.5 8.5 0 0 0 .719-3.469V0h8.968zm16.75-17.938v17.938h8.969a8.8 8.8 0 0 0 3.469-.688 9.3 9.3 0 0 0 2.844-1.937 8.9 8.9 0 0 0 1.906-2.844 8.7 8.7 0 0 0 .719-3.5 8.5 8.5 0 0 0-.719-3.469 8.8 8.8 0 0 0-1.906-2.875 8.8 8.8 0 0 0-2.844-1.906 8.5 8.5 0 0 0-3.469-.719Zm0 35.844h-8.969V0h17.938q2.469 0 4.75.656a16.8 16.8 0 0 1 4.25 1.813 17 17 0 0 1 3.625 2.813 17 17 0 0 1 2.812 3.625 17.3 17.3 0 0 1 1.813 4.281 17.1 17.1 0 0 1 .656 4.75 17 17 0 0 1-.594 4.5 17.5 17.5 0 0 1-1.656 4.156 17 17 0 0 1-2.625 3.625 17.9 17.9 0 0 1-3.5 2.875l4.969 11.718h-9.531l-3.906-9.031-10.031.062zm64.156 0H85.374V0h8.969v35.844h22.406zm56.032-3.187a5.6 5.6 0 0 1-.407 2.125 5.2 5.2 0 0 1-1.125 1.688 5.2 5.2 0 0 1-1.687 1.125 5 5 0 0 1-2.094.438 5.2 5.2 0 0 1-2.094-.437 5.6 5.6 0 0 1-1.719-1.125 5.7 5.7 0 0 1-1.156-1.687 5.6 5.6 0 0 1-.406-2.125q0-1.094.406-2.062a5.7 5.7 0 0 1 1.156-1.687 5.6 5.6 0 0 1 1.719-1.125 5.2 5.2 0 0 1 2.094-.437q1.125 0 2.094.438a5.2 5.2 0 0 1 1.687 1.125 5.2 5.2 0 0 1 1.125 1.688q.407.968.407 2.063z"/><path fill="#48aefa" d="M130.405 8.968v17.938h8.969a8.8 8.8 0 0 0 3.469-.688 9.3 9.3 0 0 0 2.844-1.937 8.9 8.9 0 0 0 1.906-2.844 8.7 8.7 0 0 0 .719-3.5q0-1.843-.719-3.469a8.8 8.8 0 0 0-1.906-2.875 8.9 8.9 0 0 0-2.844-1.906 8.5 8.5 0 0 0-3.469-.719zm0 35.844h-8.968V0h17.937q2.469 0 4.75.656a16.8 16.8 0 0 1 4.25 1.813 16.9 16.9 0 0 1 3.625 2.813 17 17 0 0 1 2.813 3.625 17.3 17.3 0 0 1 1.812 4.281q.657 2.281.657 4.75 0 2.313-.594 4.5a17.5 17.5 0 0 1-1.656 4.156 17 17 0 0 1-2.626 3.625 17.8 17.8 0 0 1-3.5 2.875l4.969 11.718h-9.531l-3.906-9.031-10.032.062z"/></svg>